<mxfile host="Electron" agent="Mozilla/5.0 (Macintosh; Intel Mac OS X 10_15_7) AppleWebKit/537.36 (KHTML, like Gecko) draw.io/26.0.16 Chrome/132.0.6834.196 Electron/34.2.0 Safari/537.36" version="26.0.16" pages="3">
  <diagram name="multistore" id="DZIh1hOr0RlLYW9YiYBd">
    <mxGraphModel dx="1434" dy="797" grid="1" gridSize="10" guides="1" tooltips="1" connect="1" arrows="1" fold="1" page="1" pageScale="1" pageWidth="827" pageHeight="1169" math="0" shadow="0">
      <root>
        <mxCell id="0" />
        <mxCell id="1" parent="0" />
        <mxCell id="aA_UUMlLt1Lx7KBVaO8--1" value="D&lt;sub&gt;11&lt;/sub&gt;" style="shape=datastore;whiteSpace=wrap;html=1;" vertex="1" parent="1">
          <mxGeometry x="180" y="370" width="50" height="50" as="geometry" />
        </mxCell>
        <mxCell id="aA_UUMlLt1Lx7KBVaO8--2" value="D&lt;sub&gt;22&lt;/sub&gt;" style="shape=datastore;whiteSpace=wrap;html=1;" vertex="1" parent="1">
          <mxGeometry x="280" y="370" width="50" height="50" as="geometry" />
        </mxCell>
        <mxCell id="aA_UUMlLt1Lx7KBVaO8--3" value="D&lt;sub&gt;33&lt;/sub&gt;" style="shape=datastore;whiteSpace=wrap;html=1;" vertex="1" parent="1">
          <mxGeometry x="380" y="370" width="50" height="50" as="geometry" />
        </mxCell>
        <mxCell id="aA_UUMlLt1Lx7KBVaO8--4" value="MultiStore" style="rounded=1;whiteSpace=wrap;html=1;" vertex="1" parent="1">
          <mxGeometry x="245" y="240" width="120" height="60" as="geometry" />
        </mxCell>
        <mxCell id="aA_UUMlLt1Lx7KBVaO8--8" value="" style="endArrow=classic;html=1;rounded=0;exitX=0.5;exitY=1;exitDx=0;exitDy=0;" edge="1" parent="1" source="aA_UUMlLt1Lx7KBVaO8--4" target="aA_UUMlLt1Lx7KBVaO8--2">
          <mxGeometry width="50" height="50" relative="1" as="geometry">
            <mxPoint x="315" y="310" as="sourcePoint" />
            <mxPoint x="215" y="350" as="targetPoint" />
          </mxGeometry>
        </mxCell>
        <mxCell id="aA_UUMlLt1Lx7KBVaO8--9" value="" style="endArrow=classic;html=1;rounded=0;exitX=0.5;exitY=1;exitDx=0;exitDy=0;entryX=0.5;entryY=0;entryDx=0;entryDy=0;" edge="1" parent="1" source="aA_UUMlLt1Lx7KBVaO8--4" target="aA_UUMlLt1Lx7KBVaO8--3">
          <mxGeometry width="50" height="50" relative="1" as="geometry">
            <mxPoint x="315" y="310" as="sourcePoint" />
            <mxPoint x="215" y="350" as="targetPoint" />
          </mxGeometry>
        </mxCell>
        <mxCell id="aA_UUMlLt1Lx7KBVaO8--13" value="" style="endArrow=classic;html=1;rounded=0;exitX=0.5;exitY=1;exitDx=0;exitDy=0;entryX=0.5;entryY=0;entryDx=0;entryDy=0;" edge="1" parent="1" source="aA_UUMlLt1Lx7KBVaO8--4" target="aA_UUMlLt1Lx7KBVaO8--1">
          <mxGeometry width="50" height="50" relative="1" as="geometry">
            <mxPoint x="315" y="310" as="sourcePoint" />
            <mxPoint x="315" y="380" as="targetPoint" />
          </mxGeometry>
        </mxCell>
        <mxCell id="aA_UUMlLt1Lx7KBVaO8--21" value="" style="swimlane;startSize=0;dashed=1;" vertex="1" parent="1">
          <mxGeometry x="110" y="230" width="380" height="200" as="geometry" />
        </mxCell>
        <mxCell id="aA_UUMlLt1Lx7KBVaO8--22" value="" style="endArrow=classic;html=1;rounded=0;exitX=0.554;exitY=1;exitDx=0;exitDy=0;exitPerimeter=0;" edge="1" parent="1" source="aA_UUMlLt1Lx7KBVaO8--23">
          <mxGeometry width="50" height="50" relative="1" as="geometry">
            <mxPoint x="300" y="150" as="sourcePoint" />
            <mxPoint x="307" y="230" as="targetPoint" />
          </mxGeometry>
        </mxCell>
        <mxCell id="aA_UUMlLt1Lx7KBVaO8--23" value="Single Query Interface Q" style="text;html=1;align=center;verticalAlign=middle;whiteSpace=wrap;rounded=0;" vertex="1" parent="1">
          <mxGeometry x="235" y="120" width="130" height="30" as="geometry" />
        </mxCell>
      </root>
    </mxGraphModel>
  </diagram>
  <diagram id="lhk7mpK2bIM_U9Yz8yxY" name="polystore">
    <mxGraphModel dx="954" dy="621" grid="1" gridSize="10" guides="1" tooltips="1" connect="1" arrows="1" fold="1" page="1" pageScale="1" pageWidth="827" pageHeight="1169" math="0" shadow="0">
      <root>
        <mxCell id="0" />
        <mxCell id="1" parent="0" />
        <mxCell id="G9Ff6yw8qAi-hzXpC12S-1" value="D&lt;sub&gt;11&lt;/sub&gt;" style="shape=datastore;whiteSpace=wrap;html=1;fillColor=#f8cecc;strokeColor=#b85450;" parent="1" vertex="1">
          <mxGeometry x="180" y="370" width="50" height="50" as="geometry" />
        </mxCell>
        <mxCell id="G9Ff6yw8qAi-hzXpC12S-2" value="D&lt;sub&gt;22&lt;/sub&gt;" style="shape=datastore;whiteSpace=wrap;html=1;fillColor=#dae8fc;strokeColor=#6c8ebf;" parent="1" vertex="1">
          <mxGeometry x="280" y="370" width="50" height="50" as="geometry" />
        </mxCell>
        <mxCell id="G9Ff6yw8qAi-hzXpC12S-3" value="D&lt;sub&gt;33&lt;/sub&gt;" style="shape=datastore;whiteSpace=wrap;html=1;fillColor=#f5f5f5;fontColor=#333333;strokeColor=#666666;" parent="1" vertex="1">
          <mxGeometry x="380" y="370" width="50" height="50" as="geometry" />
        </mxCell>
        <mxCell id="G9Ff6yw8qAi-hzXpC12S-4" value="Polystore" style="rounded=1;whiteSpace=wrap;html=1;" parent="1" vertex="1">
          <mxGeometry x="245" y="240" width="120" height="60" as="geometry" />
        </mxCell>
        <mxCell id="G9Ff6yw8qAi-hzXpC12S-5" value="" style="endArrow=classic;html=1;rounded=0;exitX=0.5;exitY=1;exitDx=0;exitDy=0;fillColor=#dae8fc;strokeColor=#6c8ebf;" parent="1" source="G9Ff6yw8qAi-hzXpC12S-4" target="G9Ff6yw8qAi-hzXpC12S-2" edge="1">
          <mxGeometry width="50" height="50" relative="1" as="geometry">
            <mxPoint x="315" y="310" as="sourcePoint" />
            <mxPoint x="215" y="350" as="targetPoint" />
          </mxGeometry>
        </mxCell>
        <mxCell id="G9Ff6yw8qAi-hzXpC12S-6" value="" style="endArrow=classic;html=1;rounded=0;exitX=0.5;exitY=1;exitDx=0;exitDy=0;entryX=0.5;entryY=0;entryDx=0;entryDy=0;fillColor=#f5f5f5;strokeColor=#666666;" parent="1" source="G9Ff6yw8qAi-hzXpC12S-4" target="G9Ff6yw8qAi-hzXpC12S-3" edge="1">
          <mxGeometry width="50" height="50" relative="1" as="geometry">
            <mxPoint x="315" y="310" as="sourcePoint" />
            <mxPoint x="215" y="350" as="targetPoint" />
          </mxGeometry>
        </mxCell>
        <mxCell id="G9Ff6yw8qAi-hzXpC12S-7" value="" style="endArrow=classic;html=1;rounded=0;exitX=0.5;exitY=1;exitDx=0;exitDy=0;entryX=0.5;entryY=0;entryDx=0;entryDy=0;fillColor=#f8cecc;strokeColor=#b85450;" parent="1" source="G9Ff6yw8qAi-hzXpC12S-4" target="G9Ff6yw8qAi-hzXpC12S-1" edge="1">
          <mxGeometry width="50" height="50" relative="1" as="geometry">
            <mxPoint x="315" y="310" as="sourcePoint" />
            <mxPoint x="315" y="380" as="targetPoint" />
          </mxGeometry>
        </mxCell>
        <mxCell id="G9Ff6yw8qAi-hzXpC12S-8" value="" style="swimlane;startSize=0;dashed=1;" parent="1" vertex="1">
          <mxGeometry x="110" y="230" width="380" height="200" as="geometry" />
        </mxCell>
        <mxCell id="G9Ff6yw8qAi-hzXpC12S-9" value="" style="endArrow=classic;html=1;rounded=0;exitX=0.554;exitY=1;exitDx=0;exitDy=0;exitPerimeter=0;fillColor=#dae8fc;strokeColor=#6c8ebf;" parent="1" source="G9Ff6yw8qAi-hzXpC12S-10" edge="1">
          <mxGeometry width="50" height="50" relative="1" as="geometry">
            <mxPoint x="300" y="150" as="sourcePoint" />
            <mxPoint x="307" y="230" as="targetPoint" />
          </mxGeometry>
        </mxCell>
        <mxCell id="G9Ff6yw8qAi-hzXpC12S-10" value="Single Query Interface Q&lt;sub&gt;2&lt;/sub&gt;" style="text;html=1;align=center;verticalAlign=middle;whiteSpace=wrap;rounded=0;" parent="1" vertex="1">
          <mxGeometry x="235" y="120" width="130" height="30" as="geometry" />
        </mxCell>
        <mxCell id="G9Ff6yw8qAi-hzXpC12S-11" value="Single Query Interface Q&lt;sub&gt;1&lt;/sub&gt;" style="text;html=1;align=center;verticalAlign=middle;whiteSpace=wrap;rounded=0;" parent="1" vertex="1">
          <mxGeometry x="80" y="120" width="130" height="30" as="geometry" />
        </mxCell>
        <mxCell id="G9Ff6yw8qAi-hzXpC12S-12" value="Single Query Interface Q&lt;sub&gt;3&lt;/sub&gt;" style="text;html=1;align=center;verticalAlign=middle;whiteSpace=wrap;rounded=0;" parent="1" vertex="1">
          <mxGeometry x="400" y="120" width="130" height="30" as="geometry" />
        </mxCell>
        <mxCell id="G9Ff6yw8qAi-hzXpC12S-13" value="" style="endArrow=classic;html=1;rounded=0;exitX=0.5;exitY=1;exitDx=0;exitDy=0;entryX=0.5;entryY=0;entryDx=0;entryDy=0;fillColor=#f8cecc;strokeColor=#b85450;" parent="1" source="G9Ff6yw8qAi-hzXpC12S-11" target="G9Ff6yw8qAi-hzXpC12S-8" edge="1">
          <mxGeometry width="50" height="50" relative="1" as="geometry">
            <mxPoint x="390" y="430" as="sourcePoint" />
            <mxPoint x="440" y="380" as="targetPoint" />
          </mxGeometry>
        </mxCell>
        <mxCell id="G9Ff6yw8qAi-hzXpC12S-14" value="" style="endArrow=classic;html=1;rounded=0;exitX=0.5;exitY=1;exitDx=0;exitDy=0;fillColor=#f5f5f5;strokeColor=#666666;" parent="1" source="G9Ff6yw8qAi-hzXpC12S-12" edge="1">
          <mxGeometry width="50" height="50" relative="1" as="geometry">
            <mxPoint x="155" y="160" as="sourcePoint" />
            <mxPoint x="310" y="230" as="targetPoint" />
          </mxGeometry>
        </mxCell>
      </root>
    </mxGraphModel>
  </diagram>
  <diagram id="udVH1f-D_h_aseFdo2lt" name="architecture">
    <mxGraphModel dx="954" dy="674" grid="1" gridSize="10" guides="1" tooltips="1" connect="1" arrows="1" fold="1" page="1" pageScale="1" pageWidth="827" pageHeight="1169" math="0" shadow="0">
      <root>
        <mxCell id="0" />
        <mxCell id="1" parent="0" />
        <mxCell id="3KxeUDT5zALbC6nW0B35-22" style="edgeStyle=orthogonalEdgeStyle;rounded=0;orthogonalLoop=1;jettySize=auto;html=1;entryX=0.5;entryY=0;entryDx=0;entryDy=0;fillColor=#dae8fc;strokeColor=#6c8ebf;" edge="1" parent="1" source="3KxeUDT5zALbC6nW0B35-1" target="3KxeUDT5zALbC6nW0B35-2">
          <mxGeometry relative="1" as="geometry" />
        </mxCell>
        <mxCell id="3KxeUDT5zALbC6nW0B35-1" value="Dataset Analyzer" style="rounded=0;whiteSpace=wrap;html=1;fillColor=#dae8fc;strokeColor=#6c8ebf;" vertex="1" parent="1">
          <mxGeometry x="120" y="150" width="120" height="60" as="geometry" />
        </mxCell>
        <mxCell id="3KxeUDT5zALbC6nW0B35-13" style="edgeStyle=orthogonalEdgeStyle;rounded=0;orthogonalLoop=1;jettySize=auto;html=1;entryX=0;entryY=0.5;entryDx=0;entryDy=0;exitX=0.5;exitY=1;exitDx=0;exitDy=0;fillColor=#dae8fc;strokeColor=#6c8ebf;" edge="1" parent="1" source="3KxeUDT5zALbC6nW0B35-2" target="3KxeUDT5zALbC6nW0B35-8">
          <mxGeometry relative="1" as="geometry" />
        </mxCell>
        <mxCell id="3KxeUDT5zALbC6nW0B35-2" value="Feature Extraction" style="rounded=0;whiteSpace=wrap;html=1;fillColor=#dae8fc;strokeColor=#6c8ebf;" vertex="1" parent="1">
          <mxGeometry x="120" y="270" width="120" height="60" as="geometry" />
        </mxCell>
        <mxCell id="3KxeUDT5zALbC6nW0B35-5" value="" style="edgeStyle=orthogonalEdgeStyle;rounded=0;orthogonalLoop=1;jettySize=auto;html=1;fillColor=#ffe6cc;strokeColor=#d79b00;" edge="1" parent="1" source="3KxeUDT5zALbC6nW0B35-3" target="3KxeUDT5zALbC6nW0B35-4">
          <mxGeometry relative="1" as="geometry" />
        </mxCell>
        <mxCell id="3KxeUDT5zALbC6nW0B35-3" value="Datastore Analyzer" style="rounded=0;whiteSpace=wrap;html=1;fillColor=#ffe6cc;strokeColor=#d79b00;" vertex="1" parent="1">
          <mxGeometry x="320" y="150" width="120" height="60" as="geometry" />
        </mxCell>
        <mxCell id="3KxeUDT5zALbC6nW0B35-9" value="" style="edgeStyle=orthogonalEdgeStyle;rounded=0;orthogonalLoop=1;jettySize=auto;html=1;fillColor=#ffe6cc;strokeColor=#d79b00;" edge="1" parent="1" source="3KxeUDT5zALbC6nW0B35-4" target="3KxeUDT5zALbC6nW0B35-8">
          <mxGeometry relative="1" as="geometry" />
        </mxCell>
        <mxCell id="3KxeUDT5zALbC6nW0B35-4" value="Capability Profiling" style="rounded=0;whiteSpace=wrap;html=1;fillColor=#ffe6cc;strokeColor=#d79b00;" vertex="1" parent="1">
          <mxGeometry x="320" y="270" width="120" height="60" as="geometry" />
        </mxCell>
        <mxCell id="3KxeUDT5zALbC6nW0B35-25" style="edgeStyle=orthogonalEdgeStyle;rounded=0;orthogonalLoop=1;jettySize=auto;html=1;entryX=0.5;entryY=0;entryDx=0;entryDy=0;fillColor=#f8cecc;strokeColor=#b85450;" edge="1" parent="1" source="3KxeUDT5zALbC6nW0B35-6" target="3KxeUDT5zALbC6nW0B35-7">
          <mxGeometry relative="1" as="geometry" />
        </mxCell>
        <mxCell id="3KxeUDT5zALbC6nW0B35-6" value="Performance Metrics" style="rounded=0;whiteSpace=wrap;html=1;fillColor=#f8cecc;strokeColor=#b85450;" vertex="1" parent="1">
          <mxGeometry x="520" y="150" width="120" height="60" as="geometry" />
        </mxCell>
        <mxCell id="3KxeUDT5zALbC6nW0B35-12" style="edgeStyle=orthogonalEdgeStyle;rounded=0;orthogonalLoop=1;jettySize=auto;html=1;entryX=1;entryY=0.5;entryDx=0;entryDy=0;exitX=0.5;exitY=1;exitDx=0;exitDy=0;fillColor=#f8cecc;strokeColor=#b85450;" edge="1" parent="1" source="3KxeUDT5zALbC6nW0B35-7" target="3KxeUDT5zALbC6nW0B35-8">
          <mxGeometry relative="1" as="geometry" />
        </mxCell>
        <mxCell id="3KxeUDT5zALbC6nW0B35-7" value="Reassignment Trigger" style="rounded=0;whiteSpace=wrap;html=1;fillColor=#f8cecc;strokeColor=#b85450;" vertex="1" parent="1">
          <mxGeometry x="520" y="270" width="120" height="60" as="geometry" />
        </mxCell>
        <mxCell id="3KxeUDT5zALbC6nW0B35-17" style="edgeStyle=orthogonalEdgeStyle;rounded=0;orthogonalLoop=1;jettySize=auto;html=1;entryX=0.5;entryY=0;entryDx=0;entryDy=0;" edge="1" parent="1" source="3KxeUDT5zALbC6nW0B35-8" target="3KxeUDT5zALbC6nW0B35-14">
          <mxGeometry relative="1" as="geometry" />
        </mxCell>
        <mxCell id="3KxeUDT5zALbC6nW0B35-8" value="AI Matching&amp;nbsp;&lt;div&gt;Engine&lt;/div&gt;" style="rounded=0;whiteSpace=wrap;html=1;" vertex="1" parent="1">
          <mxGeometry x="320" y="390" width="120" height="60" as="geometry" />
        </mxCell>
        <mxCell id="3KxeUDT5zALbC6nW0B35-18" style="edgeStyle=orthogonalEdgeStyle;rounded=0;orthogonalLoop=1;jettySize=auto;html=1;entryX=0.5;entryY=0;entryDx=0;entryDy=0;" edge="1" parent="1" source="3KxeUDT5zALbC6nW0B35-14" target="3KxeUDT5zALbC6nW0B35-15">
          <mxGeometry relative="1" as="geometry" />
        </mxCell>
        <mxCell id="3KxeUDT5zALbC6nW0B35-14" value="&lt;div&gt;Assignment Generator&lt;/div&gt;" style="rounded=0;whiteSpace=wrap;html=1;" vertex="1" parent="1">
          <mxGeometry x="200" y="510" width="120" height="60" as="geometry" />
        </mxCell>
        <mxCell id="3KxeUDT5zALbC6nW0B35-19" style="edgeStyle=orthogonalEdgeStyle;rounded=0;orthogonalLoop=1;jettySize=auto;html=1;entryX=0;entryY=0.5;entryDx=0;entryDy=0;" edge="1" parent="1" source="3KxeUDT5zALbC6nW0B35-15" target="3KxeUDT5zALbC6nW0B35-16">
          <mxGeometry relative="1" as="geometry" />
        </mxCell>
        <mxCell id="3KxeUDT5zALbC6nW0B35-15" value="Assignment Implementation" style="rounded=0;whiteSpace=wrap;html=1;" vertex="1" parent="1">
          <mxGeometry x="200" y="630" width="120" height="60" as="geometry" />
        </mxCell>
        <mxCell id="3KxeUDT5zALbC6nW0B35-16" value="Feedback Loop" style="rounded=0;whiteSpace=wrap;html=1;" vertex="1" parent="1">
          <mxGeometry x="320" y="750" width="120" height="60" as="geometry" />
        </mxCell>
        <mxCell id="3KxeUDT5zALbC6nW0B35-21" value="" style="endArrow=classic;html=1;rounded=0;exitX=0.75;exitY=0;exitDx=0;exitDy=0;entryX=0.75;entryY=1;entryDx=0;entryDy=0;" edge="1" parent="1" source="3KxeUDT5zALbC6nW0B35-16" target="3KxeUDT5zALbC6nW0B35-8">
          <mxGeometry width="50" height="50" relative="1" as="geometry">
            <mxPoint x="390" y="550" as="sourcePoint" />
            <mxPoint x="440" y="500" as="targetPoint" />
          </mxGeometry>
        </mxCell>
        <mxCell id="3KxeUDT5zALbC6nW0B35-24" style="edgeStyle=orthogonalEdgeStyle;rounded=0;orthogonalLoop=1;jettySize=auto;html=1;entryX=0.5;entryY=0;entryDx=0;entryDy=0;fillColor=#f8cecc;strokeColor=#b85450;" edge="1" parent="1" source="3KxeUDT5zALbC6nW0B35-23" target="3KxeUDT5zALbC6nW0B35-6">
          <mxGeometry relative="1" as="geometry" />
        </mxCell>
        <mxCell id="3KxeUDT5zALbC6nW0B35-23" value="Monitoring Service" style="rounded=0;whiteSpace=wrap;html=1;fillColor=#f8cecc;strokeColor=#b85450;" vertex="1" parent="1">
          <mxGeometry x="520" y="30" width="120" height="60" as="geometry" />
        </mxCell>
      </root>
    </mxGraphModel>
  </diagram>
</mxfile>
